<svg xmlns:svg="http://www.w3.org/2000/svg" xmlns="http://www.w3.org/2000/svg" version="1.1" viewBox="0 0 61.38 52.92" height="200" width="232">
  <g transform="translate(-74.180182,-92.379056)">
    <rect y="102.43" x="84.23" height="32.81" width="41.27" style="fill:#000;paint-order:normal;stroke-linejoin:round;stroke-width:20.11;stroke:#000"/>
    <path d="m113.76 135.22q-5.42 3.19-13.47 3.19-8.93 0-14.09-5.04-5.14-5.07-5.14-13.94 0-8.92 5.63-14.55 5.63-5.62 14.97-5.62 5.89 0 10.38 1.66v8q-4.28-2.53-10.48-2.53-5.19 0-8.47 3.46-3.25 3.43-3.25 9.19 0 5.84 2.92 9.03 2.94 3.19 7.92 3.19 2.99 0 4.75-0.87v-7.39h-7.41v-6.81H113.76Z" style="-inkscape-font-specification:'Segoe UI';fill:#fff;font-family:'Segoe UI';font-size:53.47;letter-spacing:0;line-height:1.25;word-spacing:0"/>
    <circle r="5.03" cy="133.39" cx="123.66" style="fill:#f00;paint-order:normal"/>
  </g>
</svg>
