<svg xmlns:svg="http://www.w3.org/2000/svg" xmlns="http://www.w3.org/2000/svg" version="1.1" viewBox="0 0 61.38 52.92" height="200" width="232">
  <g transform="translate(-74.180182,-92.379056)">
    <path d="M38-0.02C17.01-0.01 0 17 0 37.98L0 161.98C0 182.97 17.01 199.98 38 199.98L193.97 199.98C214.95 199.98 231.96 182.97 231.96 161.98L231.96 37.98C231.96 17 214.95-0.01 193.97-0.02L38-0.02zM103.87 26.01C118.71 26.01 131.78 28.1 143.1 32.28L143.1 62.51C132.31 56.14 119.11 52.95 103.49 52.95 90.41 52.95 79.74 57.31 71.48 66.03 63.29 74.67 59.2 86.25 59.2 100.76 59.2 115.47 62.88 126.85 70.23 134.89 77.64 142.92 87.62 146.94 100.16 146.94 107.7 146.94 113.68 145.85 118.12 143.65L118.12 115.72 90.11 115.72 90.11 89.99 149.6 89.99 149.6 161.91C135.94 169.95 118.97 173.96 98.69 173.96 76.19 173.96 58.44 167.61 45.44 154.92 32.49 142.14 26.01 124.58 26.01 102.23 26.01 79.76 33.11 61.43 47.29 47.24 61.48 33.08 80.33 26.01 103.87 26.01zM187.01 135.98A19.01 19.01 0 0 1 206.02 154.99 19.01 19.01 0 0 1 187.01 174 19.01 19.01 0 0 1 168 154.99 19.01 19.01 0 0 1 187.01 135.98z" transform="matrix(0.2646,0,0,0.2646,74.176582,92.379056)" style="baseline-shift:baseline;color-interpolation-filters:linearRGB;color-interpolation:sRGB;color-rendering:auto;direction:ltr;dominant-baseline:auto;fill:#000;font-family:sans-serif;font-feature-settings:normal;font-size:medium;font-variant-alternates:normal;font-variant-caps:normal;font-variant-ligatures:normal;font-variant-numeric:normal;font-variant-position:normal;image-rendering:auto;isolation:auto;letter-spacing:normal;line-height:normal;mix-blend-mode:normal;paint-order:normal;shape-padding:0;shape-rendering:auto;solid-color:#000000;solid-opacity:1;text-align:start;text-anchor:start;text-decoration-color:#000000;text-decoration-line:none;text-decoration-style:solid;text-decoration:none;text-indent:0;text-orientation:mixed;text-rendering:auto;text-transform:none;vector-effect:none;white-space:normal;word-spacing:normal;writing-mode:lr-tb"/>
  </g>
</svg>
